<?xml version="1.0" encoding="UTF-8"?>
<svg id="a" data-name="Layer 1" xmlns="http://www.w3.org/2000/svg" width="150" height="150" fill="white" viewBox="0 0 400 400">
  <path d="M306.084,324.234c-1.795,.324-5.495,.947-7.744,0-3.743-1.576-8.521-3.13-13.293-6.884-8.491-6.68-22.055-22.095-25.076-27.999-3.195-6.257-2.986-35.386-3.956-44.117-1.466-13.138,.453-16.38-9.316-21.756-10.084-5.554-27.94-6.63-31.573-11.09-1.569-1.921-2.174-8.548-2.359-10.437,2.305-2.019,4.386-4.437,5.516-7.355,0,0,.08-.199,.102-.259,.319-.848,.603-3.043,.846-3.945,1.91-.377,3.022-2.403,3.448-4.279,.429-.759,1.322-2.629,1.117-4.752-.263-2.732-1.393-3.995-2.661-4.522,.002-.131,.002-.254,.003-.376,.249-2.643,.28-5.866-.301-10.657-.138-.361,.288-.7,.755-1.089-.852-.687-1.145-3.073-.17-5.16-.554-.163-1.106-.326-1.66-.489,.391-.26,.781-.52,1.172-.781-.358-.196-.716-.39-1.074-.586,.358-.065,.716-.13,1.074-.194-.554-.326-1.106-.651-1.66-.976,.358-.098,.716-.195,1.073-.293-2.07-1.852-2.936-2.773-3.027-5.176-.423,.293-.847,.586-1.27,.878-.229-1.755-.472-1.396-.976-3.32-.196,.325-.391,.651-.586,.977-3.915-6.055-7.837-5.927-13.075-7.767,1.345,1.608,.903,2.309-.196,2.148-7.747-2.589-8.2,3.865-13.085,3.027,.065,.65,.13,1.302,.195,1.953-.52-.194-1.041-.39-1.562-.586,.098,.358,.195,.716,.293,1.074-.651-.065-1.302-.13-1.953-.196,.261,.521,.521,1.041,.781,1.563-.619-.163-1.237-.325-1.856-.488,.228,.587,.455,1.171,.684,1.758-.878-.163-1.758-.325-2.637-.489,.781,.684,1.563,1.368,2.343,2.051-.618-.032-1.237-.065-1.855-.097,.39,.455,.781,.911,1.172,1.367-5.989,1.076-5.701,13.177-4.774,20.794-.003,.219-.007,.437-.007,.656,0,.141,0,.286,.003,.435-1.308,.505-2.487,1.761-2.757,4.562-.205,2.122,.688,3.992,1.117,4.752,.432,1.906,1.576,3.973,3.548,4.297,.245,.906,.532,2.844,.855,3.699,.021,.056,.043,.11,.065,.165l.03,.073c.963,2.48,2.833,6.435,5.028,8.042,7.626,5.583,10.857,5.636,14.409,5.713-2.358,.753-5.308,1.181-7.56,.885-3.049-.4-4.757-1.114-7.148-2.579-.338,1.394-.926,5.87-2.005,7.192-3.637,4.457-21.162,4.323-31.256,9.877-9.767,5.376-7.838,8.618-9.302,21.756-.973,8.729-.757,37.86-3.957,44.117-3.021,5.904-16.578,21.319-25.071,27.999-4.769,3.754-9.553,5.308-13.298,6.884-2.244,.947-5.944,.324-7.739,0-6.102-1.093-14.217-.232-8.446,6.4,6.95,7.995,12.516,5.331,12.516,5.331,0,0-8.761,10.796,3.907,24.874,12.671,14.076,20.91,16.265,38.116,14.545,17.208-1.72,59.858-7.509,59.858-7.509,0,0,42.779,5.789,59.99,7.509,17.205,1.72,25.572-.47,38.245-14.545,12.671-14.079,3.905-24.874,3.905-24.874,0,0,5.566,2.667,12.516-5.331,5.78-6.633-2.34-7.493-8.439-6.4Zm-147.877-27.524c2.185-3.28,7.509-48.804,7.509-48.804,0,0,2.737,47.032,2.19,54.901-.547,7.866-6.727,26.38-10.145,27.733-7.375,2.925-37.15,.219-37.366,0,19.339-9.069,35.628-30.553,37.813-33.831Zm-8.032,44.527c-11.261-2.125-20.495-4.188-31.915-3.426-1.512,.101-4.05-.625-2.549-.725,6.566-.438,13.841-1.254,20.406-.81,5.508,.373,10.996,.961,16.414,2.035,5.204,1.031,10.331,2.402,15.447,3.797,8.991,2.452,16.372,7.408,25.231,8.903-4.018-.428-8.006-1.121-11.951-2.006-10.424-2.339-20.576-5.785-31.083-7.768Zm84.113-93.338s5.324,45.524,7.509,48.804c2.185,3.278,18.479,24.764,37.815,33.832-.223,.221-29.996,2.928-37.371,.003-3.414-1.354-9.596-19.867-10.141-27.734-.545-7.868,2.188-54.905,2.188-54.905Zm6.808,99.293c14.278-7.497,22.737-10.23,39.598-8.356-14.28,1.873-26.495,5.098-39.598,8.356Z"/>
</svg>