<?xml version="1.0" encoding="UTF-8"?>
<svg id="a" data-name="Layer 1" xmlns="http://www.w3.org/2000/svg" width="150" height="150" fill="white" viewBox="0 0 400 400">
  <path d="M291.924,276.12c-1.621-1.042-5.13-.743-8.724,1.1-2.091,1.07-5.336,4.011-6.363,5.372-.161,.211-.869,1.932-1.226,3.243-.945,3.475-3.648,10.573-5.165,13.56-1.141,2.242-5.909,9.448-13.104,19.817,3.477-5.974,7.444-13.606,11.837-23.495,.469-1.056,1.394-3.611,2.038-5.704,1.961-6.363,2.943-9.151,5.536-15.691l6.122-15.413c1.814-4.565,2.852-7.526,3.364-9.071,.252-.755-.218-1.542-1.001-1.679-1.857-.324-5.282-.307-8.705,2.927-4.459,4.211-8.497,12.059-15.904,27.938-1.357,2.91-2.618,6.162-6.389,10.851,0,0-2.669,13.569-3.241,17.094-.571,3.518-4.567,16.965-5.372,18.913-.461,1.121-1.406,2.648-2.148,3.475-1.511,1.686-11.901,7.245-11.58,6.788,.594-.853,4.931-3.632,5.796-4.18,2.225-1.413,3.722-2.984,4.576-4.807,.646-1.383,2.219-7.749,2.953-11.951,1.117-6.386,2.268-13.255,2.637-16.819,.448-4.286,1.538-18.823,1.474-23.356-.074-5.414,.161-6.881-1.053-10.13-.613-1.639-2.778-5.889-3.735-7.34-.463-.701-1.583-2.655-2.549-4.449-.939-1.747-4.302-7.541-7.494-12.912-8.402-14.138-9.543-14.593-10.282-14.769-.48-.114-1.2,.261-1.931,1.384-.592,.907-1.011,1.809-1.319,2.702l.628-157.747h-7.324l1.403,162.158c-.295-.889-.688-1.926-1.111-2.617-.962-1.57-1.537-2.174-2.302-3.041-1.154-1.31-3.2-1.403-5.274,5.014l-2.832,7.293c-.187,.317-1.826,4.28-2.24,5.068-3.046,5.797-10.167,15.485-18.583,25.287-11.114,12.942-15.643,17.389-32.312,31.722-5.151,4.43-6.754,6.198-9.514,10.503-11.098,17.298-15.773,22.753-23.815,27.782-1.605,1.003-3.207,1.871-4.936,2.672-.126,.116-.285,.213-.489,.275-2.988,.91-3.99,4.139-4.362,6.935-1.046,7.869,1.651,16.631,5.215,23.56,2.762,5.368,7.692,12.672,14.457,12.558,18.874-9.269,42.073-18.159,45.407-19.427,18.376-6.992,33.699-12.429,46.845-16.624,14.838-4.735,17.757-4.507,22.824-11.068,1.648-2.134,4.977-5.587,9.658-12.549,.139-.102,.284-.209,.417-.305l4.265-3.116c3.419-2.501,6.908-5.421,8.674-7.267,1.565-1.629,2.115-2.474,7.362-11.296,6.137-10.314,8.406-13.645,15.178-22.285,1.891-2.413,3.444-4.635,3.764-5.171,.522-.871,.412-1.415-.05-1.713Zm-69.806,25.401c-3.839,5.406-7.561,8.204-12.073,9.071-5.349,1.026-12.095-3.81-13.88-9.951-.59-2.033-.708-6.479-.235-9.158,.729-4.146,3.062-9.05,6.745-14.183,6.686-9.316,10.601-16.982,12.691-24.857,.17-.642,.313-1.243,.456-1.846l.283,32.754h4.652l.179-44.994c.76,3.26,3.991,11.371,6.883,17.915,.971,2.192,2.334,5.617,3.045,7.638,1.126,3.216,1.305,4.049,1.377,6.357,.138,4.613-1.631,12.753-4.401,20.25-1.871,5.057-2.888,7.012-5.722,11.003Zm1.586-266.901c6.437-3.824,14.819-1.999,23.554-.316,11.682,2.251,24.924,4.804,33.462-7.527,4.032-5.822,5.47-17.015-.897-27.841,0,0,4.879,12.068-2.901,22.107-6.136,7.918-16.334,7.812-28.109,5.543-9.158-1.763-36.986-8.914-39.788,15.836-1.188,10.491,6.348,20.061,8.912,23.911,0,0-8.981-22.951,5.767-31.713Z"/>
</svg>