<?xml version="1.0" encoding="UTF-8"?>
<svg id="a" data-name="Layer 1" xmlns="http://www.w3.org/2000/svg" width="150" height="150" fill="white" viewBox="0 0 400 400">
  <path d="M197.499,246.672c0-7.966-.168-49.23,.348-53.702,.315-2.733,.285-5.547-.195-8.232-.532-2.974-2.487-8.006-6.297-7.683-1.22,.103-2.25,.944-3.066,1.856-3.733,4.171-13.005,51.829-14.018,57.518-.987,5.542-9.109,19.813-11.235,22.166,.023-.144,7.72-19.137,7.743-19.281,1.053-5.707,12.045-59.726,17.102-64.403,1.574-1.456,3.794-2.543,5.96-1.867,.416,.13,2.866,1.714,2.866,.835,0-1.849,.522-19.808-1.288-20.263-4.428-1.115-7.676,.403-9.241,5.69-4.051,13.685-8.169,20.518-20.412,48.852-.024,.055,0,.24,0,.24-3.918,7.515-9.629,19.636-12.144,25.021-.835,1.787-1.215,3.748-1.109,5.718,.57,10.618,4.847,49.83,5.305,60.786,.723,17.308-27.396,56.411-27.396,56.411,0,0,3.333,6.154,11.131,13.353,12.134,11.2,26.571,16.665,26.571,16.665,0,0,28.075-54.112,29.961-71.087,.628-5.653,.851-11.366,.5-17.068-.352-5.705-1.083-45.661-1.083-51.524Z"/>
  <path d="M242.185,299.923c.457-10.956,4.735-50.168,5.305-60.786,.106-1.97-.275-3.931-1.11-5.718-2.515-5.386-8.226-17.506-12.144-25.021,0,0,.024-.185,0-.24-12.243-28.334-16.362-35.167-20.412-48.852-1.565-5.288-4.813-6.805-9.241-5.69-1.81,.455-1.289,18.414-1.289,20.263,0,.88,2.45-.704,2.866-.835,2.166-.677,4.386,.41,5.96,1.867,5.056,4.677,16.049,58.696,17.102,64.403,.023,.144,7.719,19.137,7.743,19.281-2.125-2.353-10.248-16.624-11.235-22.166-1.013-5.689-10.286-53.347-14.018-57.518-.816-.912-1.846-1.753-3.066-1.856-3.81-.323-5.766,4.71-6.297,7.683-.48,2.685-.51,5.499-.195,8.232,.516,4.472,.348,45.736,.348,53.702,0,5.863-.732,45.819-1.084,51.524-.351,5.702-.129,11.415,.499,17.068,1.886,16.976,29.962,71.087,29.962,71.087,0,0,14.437-5.465,26.571-16.665,7.798-7.198,11.131-13.353,11.131-13.353,0,0-28.119-39.102-27.396-56.411Z"/>
</svg>