<?xml version="1.0" encoding="UTF-8"?>
<svg id="a" data-name="Layer 1" xmlns="http://www.w3.org/2000/svg" width="150" height="150" fill="white" viewBox="0 0 400 400">
  <path d="M260.169,351.241c3.513-5.52,5.771-10.788,7.528-15.306,16.058-42.152-8.531-80.543-9.535-81.798-1.255,38.64-27.601,48.426-29.106,48.928,1.003-1.255,21.328-26.596,19.321-76.027-2.008-47.673-44.16-71.259-48.928-73.768,4.015,2.51,5.771,11.793,5.771,11.793,7.277,32.869-31.615,63.732-31.615,63.732-101.871,95.347-5.771,144.777-3.513,146.031-1.003-1.757-31.866-63.23,20.826-97.354-.25,1.003-6.022,17.563,18.818,47.673,0,0,12.043,15.556,6.775,39.142,.753-.502,16.308-10.288,14.303-33.371,1.003,1.003,17.313,22.331,7.528,43.659,1.253-.753,16.809-13.801,21.827-23.336h0Z"/>
</svg>