<?xml version="1.0" encoding="UTF-8"?>
<svg id="a" data-name="Layer 1" xmlns="http://www.w3.org/2000/svg" width="150" height="150" fill="white" viewBox="0 0 400 400">
  <path d="M279.477,158.077h0Zm-8.556,25.468c3.971-8.071,6.849-16.635,8.556-25.467-.206,.309-.393,.626-.56,.957-2.789,4.56-6.696,8.333-11.353,10.955-8.693,4.897-18.736,6.847-28.628,5.558-13.906-1.966-28.023-1.874-41.9,.279-13.493,2.195-26.121,8.06-36.504,16.951-11.362,9.51-18.125,23.416-18.591,38.224-.156,4.861,.522,9.717,2,14.352v-5.037c.02-1.782,.167-3.559,.438-5.318,2.872-14.025,11.125-26.368,22.989-34.384,12.985-9.095,28.63-13.596,44.46-12.793,1.64,.039,3.319,.279,4.959,.279-5.996,1.721-11.995,3.04-17.991,4.479-15.896,3.207-30.159,11.897-40.302,24.548-.321,.399-.641,.839-1.04,1.439,1.481,1.28,2.8,2.56,4.239,3.64,5.779,4.094,12.176,7.24,18.95,9.315,9.131,3.118,18.852,4.116,28.427,2.917,13.245-2.072,25.611-7.915,35.623-16.831,11.061-9.365,20.001-20.978,26.229-34.063Zm40.264,70.601c-3.243-14.443-12.494-26.82-25.429-34.024-4.172-2.398-8.732-4.049-13.473-4.878v.003c1.439,.879,2.959,1.598,4.398,2.438,1.553,.809,3.037,1.746,4.437,2.797,11.141,8.999,18.315,22.001,19.991,36.225,2.148,15.71-1.034,31.687-9.036,45.378-.759,1.478-1.679,2.878-2.518,4.317,1.238-6.076,2.8-12.114,4.278-18.072,4.445-15.59,3.271-32.245-3.319-47.057-.248-.549-.53-1.082-.839-1.598v-.003c-1.799,.72-3.517,1.319-5.157,2.12-6.292,3.263-12.026,7.499-16.993,12.556-6.939,6.727-12.28,14.924-15.632,23.987-4.231,12.723-4.73,26.388-1.439,39.382,3.285,14.108,9.513,27.364,18.27,38.902,5.346,7.234,11.641,13.716,18.714,19.271h0c-.142-.33-.304-.648-.482-.96-2.808-4.585-4.39-9.817-4.596-15.191-.371-9.973,2.504-19.793,8.196-27.989,8.115-11.448,14.502-24.032,18.95-37.343,4.264-13.008,4.847-26.941,1.679-40.261Zm-86.486,88.285c-1.537,.837-3.143,1.545-4.797,2.12-13.579,4.418-28.346,3.341-41.142-2.998-14.287-6.866-25.858-18.326-32.864-32.546h-.003c-.798-1.478-1.478-2.998-2.198-4.518,4.44,4.437,8.676,9.036,12.675,13.554,10.575,12.287,25.114,20.49,41.102,23.189h1.799c.399-1.919,.878-3.679,1.079-5.477,.767-7.05,.388-14.181-1.121-21.109-1.768-9.479-5.634-18.44-11.315-26.229-8.272-10.509-19.366-18.44-31.986-22.869-13.643-5.084-28.212-7.212-42.739-6.239-8.977,.488-17.852,2.17-26.388,4.998l1.161,.081c5.349,.126,10.578,1.612,15.194,4.317,8.498,5.218,15.099,13.024,18.831,22.272,5.031,13.113,11.97,25.412,20.59,36.501,8.506,10.726,19.809,18.889,32.666,23.591,13.83,5.254,29.244,4.367,42.38-2.44,4.301-2.153,8.197-5.034,11.515-8.515h-.003c-1.517,.72-2.959,1.559-4.437,2.318Z"/>
</svg>