<?xml version="1.0" encoding="UTF-8"?>
<svg id="a" data-name="Layer 1" xmlns="http://www.w3.org/2000/svg" width="150" height="150" fill="white" viewBox="0 0 400 400">
  <path d="M248.95,263.24l-30.846-53.375h14.485l-32.723-56.594-32.722,56.594h14.485l-30.846,53.375h22.53l-41.037,70.809h55.253v52.302h24.677v-52.302h55.252l-41.037-70.809h22.53Zm18.239,.535h20.385l-27.896-48.011h12.876l-29.237-50.693-15.287,26.287,9.119,15.824,4.56,8.046h-14.216l26.017,45.329,4.827,8.045h-22.53l34.064,59.008h34.332l-37.015-63.836Zm-35.136,111.043h22.53v-35.406h-22.53v35.406Zm-86.634,0h22.262v-35.406h-22.262v35.406Zm5.364-106.214h-9.387l4.827-8.045,26.017-45.329h-14.216l4.559-8.047,9.119-15.824-15.287-26.287-29.237,50.693h12.876l-27.895,48.011h20.385l-36.747,63.836h34.064l34.064-59.008h-13.142Z"/>
</svg>