<?xml version="1.0" encoding="UTF-8"?>
<svg id="a" data-name="Layer 1" xmlns="http://www.w3.org/2000/svg" width="150" height="150" fill="white" viewBox="0 0 400 400">
  <path d="M136.932,247.763c1.633,3.293,4.217,8.959,5.824,12.57,4.347,9.99,4.823,10.936,5.824,11.227,.606,.185,3.534,1.371,6.695,2.688,1.635,.657,5.746,2.371,8.065,3.268-.185-.159-.369-.317-.554-.502l-.713-.658c-6.274-5.665-6.352-5.772-8.46-10.673l-.237-.553c-4.214-9.86-4.69-10.887-8.564-18.398-2.137-4.192-4.191-8.224-4.535-9.041-1.344-2.977-4.269-8.354-5.535-10.093-.687-.948-1.82-2.189-2.478-2.662-1.451-1.108-3.822-1.843-5.299-1.582-.871,.16-1.318,.503-1.477,.765-.211,.343-.236,.791,.531,1.979,.897,1.423,5.377,10.33,10.913,21.664Zm33.519,24.564c-1.001-1.553-2.925-4.428-4.243-6.351-1.344-1.95-4.849-7.142-7.8-11.543-6.851-10.201-7.67-11.256-9.462-12.653-1.739-1.345-3.398-1.821-3.926-1.714,0,0-.026,0-.055,.003,.185,.606,1.503,3.136,4.35,8.724,1.451,2.847,3.77,7.773,5.167,10.991,3.534,8.249,3.663,8.46,6.484,11.042,3.793,3.481,8.697,8.146,9.329,8.963,.632,.713,8.276,3.083,11.438,3.478-1.16-1.108-3.689-3.374-7.301-6.325-1.318-1.108-2.743-2.741-3.981-4.613Zm141.914,66.595c-13.315-13.95-27.719-23.692-27.719-23.692-1.713-1.318-3.744-3.321-4.561-4.428-4.243-5.717-9.461-10.754-15.551-14.891-4.797-3.293-7.962-4.875-13.601-6.798-7.249-2.505-14.048-3.69-21.981-3.796-6.643-.078-8.778,.106-28.306,2.61-12.914,1.659-15.444,1.633-22.376-.159-4.927-1.267-8.933-2.662-15.891-5.562-7.168-2.976-19.794-7.328-23.299-7.984-2.688-.528-13.193-1.201-14.761,.935-1.955,2.762-3.718,4.564,2.441,8.415,8.054,5.034,26.59,20.798,30.7,22.985,4.901,2.637,19.045,6.724,31.301,10.68,0,0,26.541,9.068,26.777,10.491,.159,.871-36.285-7.079-38.316-7.791-7.8-2.744-20.485-7.345-23.199-8.716-1.581-.819-8.123-7.087-14.239-11.462-10.096-7.221-10.035-7.656-13.533-9.497,1.319,2.393,4.695,7.548,12.246,17.085,13.723,17.332,15.207,20.426,20.478,25.696,2.847,2.847,4.428,3.874,7.434,4.823,2.584,.791,14.893,2.607,18.819,2.741,7.907,.288,23.431,2.002,35.371,3.875,12.652,1.978,30.444,6.719,38.059,10.148,4.587,2.056,11.44,6.668,14.971,10.041,2.284,2.216,2.311,2.982,4.848,7.636,.915,1.679,3.054,2.327,4.785,1.516,16.856-7.899,25.82-23.219,29.661-31.564,.517-1.123,.295-2.444-.559-3.339Zm-186.533-70.63c1.791-.315,3.663-.421,5.429-.289,.528,.054,.975,.08,1.344,.106-1.898-2.344-7.405-9.014-9.118-10.965-4.849-5.562-15.813-16.973-18.054-18.819-6.404-5.217-12.467-6.668-17.527-4.166-1.289,.635-1.211,1.371-.949,2.19,.606,1.714,9.83,14.812,13.073,19.502,2.847,4.166,10.725,14.972,16.234,22.35-.159-.424-.266-.845-.317-1.267-.314-1.979,.395-3.478,1.846-5.14,1.399-1.607,4.587-2.925,8.039-3.504Zm-13.497-34.639c.635,2.082,1.555,5.141,2.057,6.854l.871,2.951,4.638,5.14c2.608,2.872,5.455,6.086,6.404,7.194,.923,1.081,3.637,4.14,5.957,6.695,2.371,2.611,4.638,5.218,5.059,5.772,.317,.395,.606,.66,.713,.739,.635,.026,2.478,.448,3.612,.739,.975,.239,1.739,.395,2.267,.502-1.477-3.53-8.117-18.288-9.435-20.899-1.03-2.056-2.637-5.325-3.586-7.275-6.009-12.519-7.852-15.787-11.042-19.503-2.925-3.372-5.876-4.952-8.38-4.532-.502,.081-1.004,.266-1.477,.503-1.185,.687-1.344,1.37,.023,6.712,.658,2.559,1.687,6.326,2.319,8.409Zm94.842,6.007c1.758,.191,3.411,.992,4.63,2.274,5.219,5.49,10.469,10.68,16.01,15.57,.312,.276,.805,.182,.979-.196,.221-.478,.54-1.189,.948-2.145,1.133-2.658,.292-5.744-2.036-7.455-24.585-18.069-50.776-55.492-58.574-84-.126-.462,.528-.698,.777-.291,19.239,31.498,35.99,55.109,50.926,70.496,.52,.537,1.429,.07,1.358-.673-6.392-66.274-35.316-98.19-87.143-96.495-.946,.032-1.397,1.175-.755,1.872,36.93,40.003-2.012,92.904,72.882,101.044Z"/>
</svg>