<?xml version="1.0" encoding="UTF-8"?>
<svg id="a" data-name="Layer 1" xmlns="http://www.w3.org/2000/svg" width="150" height="150" fill="white" viewBox="0 0 400 400">
  <path d="M200.435,176.312c.953,.081,1.877,.467,2.606,1.086l97.272,83.376c1.838,1.591,2.061,4.713,.47,6.549-1.591,1.838-4.713,2.061-6.551,.47l-94.232-80.77-94.232,80.77c-1.838,1.591-4.958,1.367-6.551-.47-1.591-1.838-1.367-4.958,.47-6.549l37.782-32.354v-51.965h18.528v36.042l40.965-35.102c.948-.809,2.234-1.212,3.473-1.086v.003Zm-.434,18.528l74.112,62.532v108.852H125.889v-108.852l74.112-62.532Zm34.74,76.428h-27.792v27.792h27.792v-27.792Zm-41.688,0h-27.792v27.792h27.792v-27.792Zm41.688,41.688h-27.792v27.792h27.792v-27.792Zm-41.688,0h-27.792v27.792h27.792v-27.792Z"/>
</svg>